<?xml version="1.0" encoding="utf-8"?>
<!-- Generator: Adobe Illustrator 19.2.1, SVG Export Plug-In . SVG Version: 6.00 Build 0)  -->
<svg version="1.1" id="Layer_1" xmlns="http://www.w3.org/2000/svg" xmlns:xlink="http://www.w3.org/1999/xlink" x="0px" y="0px"
	 viewBox="0 0 135 120" style="enable-background:new 0 0 135 120;" xml:space="preserve">
<metadata><?xpacket begin="﻿" id="W5M0MpCehiHzreSzNTczkc9d"?>
<x:xmpmeta xmlns:x="adobe:ns:meta/" x:xmptk="Adobe XMP Core 5.6-c111 79.158366, 2015/09/25-01:12:00        ">
   <rdf:RDF xmlns:rdf="http://www.w3.org/1999/02/22-rdf-syntax-ns#">
      <rdf:Description rdf:about=""/>
   </rdf:RDF>
</x:xmpmeta>
                                                                                                    
                                                                                                    
                                                                                                    
                                                                                                    
                                                                                                    
                                                                                                    
                                                                                                    
                                                                                                    
                                                                                                    
                                                                                                    
                                                                                                    
                                                                                                    
                                                                                                    
                                                                                                    
                                                                                                    
                                                                                                    
                                                                                                    
                                                                                                    
                                                                                                    
                                                                                                    
                           
<?xpacket end="w"?></metadata>
<style type="text/css">
	.st0{fill:#7EB896;}
	.st1{fill:#F1CC6C;}
	.st2{fill:#62B0CB;}
	.st3{fill:#FBFDFC;}
	.st4{fill:#FCFDFC;}
	.st5{fill:#E9E9E9;}
</style>
<g>
	<path class="st0" d="M318.7,277.4c-4.9,0-8.4-5.5-5.5-9.6c2.8-3.8,1.6-6.1-1.1-8.9c-3.1-3.3-5.9-7-8.8-10.6c-1-1.2-1.6-1.6-2.7-0.1
		c-3.8,4.8-7.7,9.4-11.6,14.1c-0.7,0.8-0.8,1.5-0.2,2.4c0.8,1.1,1.5,2.2,2.1,3.4c1.4,2.9,0.5,6.2-2,8c-2.5,1.8-5.7,1.7-8.1-0.2
		c-2.4-2-2.9-5.4-1.4-8.2c0.4-0.7,0.7-1.4,1.3-1.8c2.4-1.9,1.7-3.7,0.2-5.9c-4.4-6.6-8.6-13.2-12.9-19.9c-0.4-0.6-0.8-1.3-1.1-1.9
		c-0.5-1,0-1.8,0.8-2.4c0.8-0.5,1.6-0.4,2.3,0.2c0.5,0.5,1,1.1,1.4,1.8c4.3,6.6,8.6,13.2,12.8,20c1.3,2.1,2,1.7,3.3,0.1
		c4.1-5.1,8.3-10.2,12.5-15.2c1.8-2.2,2-2.2,3.9,0.1c4.2,5.1,8.5,10.2,12.7,15.5c1.4,1.8,2,1.2,2.9-0.3c4.2-6.6,8.5-13.2,12.7-19.7
		c0.4-0.6,0.8-1.3,1.3-1.8c0.8-0.9,1.7-1.1,2.7-0.4c0.9,0.7,1.2,1.6,0.6,2.6c-0.8,1.4-1.7,2.7-2.5,4c-4,6.2-7.9,12.3-12,18.4
		c-1.1,1.6-1.3,2.8,0.2,4.3c1.5,1.5,2.8,3.3,2.8,5.7C325.1,274.5,322.3,277.4,318.7,277.4z"/>
	<path class="st1" d="M27.9,235.9c4.1,0.2,6.9,2.5,8.4,6.5c1.7,4.7,1.6,9.7,1.8,14.5c0.2,3.7,0.2,7.3,1.1,10.9
		c0.3,1.4,0.9,2.7,1.9,3.7c2.2,2.3,5.7,1.8,7.1-1c1.4-2.9,1.5-6.1,2.1-9.2c0.6-3.3,1-6.6,2.5-9.6c1.5-3,3.9-4.8,7.3-4.7
		c3.3,0.1,5.6,2,6.9,5c1.7,3.8,2.1,8,2.8,12.1c0.3,1.8,0.6,3.6,1.2,5.3c0.6,1.9,1.6,3.5,4,3.5c2.4,0.1,3.9-1.2,4.8-3.3
		c1.1-2.7,1.4-5.6,1.5-8.5c0.2-5.1,0.2-10.2,1.1-15.2c0.8-4.5,2.3-8.6,7.5-9.9c0.8-0.2,1.6-0.2,2.5-0.2c1.1,0,1.9,0.7,2,1.9
		c0.1,1.2-0.6,1.8-1.7,2.1c-4.5,1.2-5.8,2.7-6.2,7.4c-0.5,5.1-0.7,10.3-1,15.4c-0.2,3.2-0.7,6.3-2,9.2c-1.6,3.5-4.9,5.6-8.6,5.3
		c-3.6-0.2-5.9-2.4-7.2-5.7c-1.6-4-1.8-8.3-2.7-12.4c-0.4-1.9-0.7-3.8-1.6-5.5c-0.7-1.5-1.7-2.4-3.4-2.4c-1.7,0-2.8,1-3.4,2.5
		c-1.6,3.7-1.8,7.7-2.6,11.7c-0.4,2.2-0.9,4.4-1.8,6.5c-1.3,3.2-3.6,5.3-7.2,5.3c-3.4,0.1-6.2-1.2-7.9-4.3
		c-1.9-3.3-2.4-6.9-2.6-10.5c-0.3-5.1-0.3-10.1-1-15.2c-0.6-3.7-1.6-7-6.3-7.4c-1.2-0.1-1.9-1.1-1.6-2.4
		C25.6,236,26.9,235.8,27.9,235.9z"/>
	<path class="st2" d="M85.5,74c5.9-9.4,11.7-18.4,17.4-27.5c0.5-0.8,1-1.6,1.5-2.3c0.8-1.3,1.8-2.4,3.4-1.3c1.5,1,0.9,2.3,0.1,3.5
		c-2.7,4.2-5.3,8.4-8,12.6c-4.2,6.7-8.5,13.4-12.7,20c-1.3,2-1.8,2-3.2,0.1c-5-7.1-10-14.3-15.1-21.4c-1.7-2.4-1.7-2.4-3.3-0.1
		c-5,7.1-10.1,14.3-15.1,21.4c-1.5,2.1-1.9,2.2-3.3,0c-6.9-10.8-13.7-21.6-20.6-32.5c-0.8-1.3-1.5-2.6,0.1-3.7
		c1.7-1.1,2.6,0.2,3.4,1.5c5.9,9.3,11.8,18.6,17.6,27.8c0.4,0.6,0.7,1.1,1.2,1.8c4.6-6.6,9.2-13,13.7-19.5c1-1.4,2.1-2.8,3-4.3
		c1.1-1.8,2-1.5,3.1,0.1c5.2,7.5,10.5,15,15.8,22.5C84.8,73.1,85,73.4,85.5,74z"/>
	<path class="st3" d="M285.3,267.1c2.5,3,2.8,4.4,1.2,5.6c-1.2,0.9-2.3,0.7-3.3-0.4C282,271,282.6,269.5,285.3,267.1z"/>
	<path class="st4" d="M318.4,267.2c2.7,2.3,3.4,3.9,2.1,5.2c-1,1-2.2,1.2-3.3,0.3C315.7,271.5,316,270.2,318.4,267.2z"/>
	<path class="st5" d="M269,260.5c0.5,1.1,0.8,2,1.1,2.8C267.7,263.5,267.7,263.5,269,260.5z"/>
</g>
</svg>
