<svg id="Layer_1" data-name="Layer 1" xmlns="http://www.w3.org/2000/svg" viewBox="0 0 112.77 139.73"><defs><style>.cls-1{fill:#7b5781;}.cls-2{fill:#7ec69c;}.cls-3{fill:#fdd067;}.cls-4{fill:#61afc9;}.cls-5{fill:#f27066;}.cls-6{fill:#f27167;}.cls-7{fill:#0f1212;}.cls-8{fill:#151818;}.cls-9{fill:#202222;}.cls-10{fill:#f6faf8;}.cls-11{fill:#fefefe;}.cls-12{fill:#a4a5a5;}</style></defs><title>westerdals_logo_1409563211</title><path class="cls-1" d="M79.41,25.4L98.78,69.26l8.43-26c0.31-.95.63-1.89,0.92-2.85,0.45-1.5,1.06-3.08,3-2.56,2.17,0.59,1.93,2.34,1.38,4.07-3.11,9.82-6.18,19.65-9.31,29.46a30,30,0,0,1-4.34,9.07L78.36,35.29,57.86,80.62a5.92,5.92,0,0,1-1.52-1.32q-6-18.72-12-37.47c-0.56-1.74-.73-3.53,1.43-4s2.66,1.52,3.15,3.07c2.89,9,5.73,18,9,28.4L77.41,25.4h2Z" transform="translate(-22.01 -25.4)"/><path class="cls-2" d="M98.18,165.13c-6.26-.06-10-6.53-6.56-11.57,2.55-3.73,1.85-5.92-.88-8.84a154.75,154.75,0,0,1-10.2-12.29c-1.87-2.47-2.85-1.8-4.42.24a157.21,157.21,0,0,1-10.23,12.27c-2.7,2.83-3.42,5-.77,8.42,2.53,3.27,1.91,7.09-1.27,9.87-2.81,2.45-6.07,2.53-9.17.28C51.2,161,50.33,156.57,53.43,153s2.42-6,0-9.39c-4.83-6.77-9.2-13.87-13.67-20.89-1-1.57-2.85-3.61-.26-5.11,2.2-1.27,3.18,1,4.15,2.49,4.48,6.82,9.07,13.57,13.29,20.54,2.08,3.43,3.47,4.15,6.15.56,3.68-4.93,7.94-9.42,11.61-14.36,2.64-3.55,4.49-4.13,7.36-.17,3.6,5,7.85,9.49,11.61,14.36,2.35,3,3.83,3.77,6.17-.22,4.13-7,8.79-13.74,13.27-20.56,1.06-1.61,2.18-4.16,4.51-2.53s0.36,3.63-.67,5.24c-4.58,7.15-9.05,14.38-14,21.3-2.31,3.26-2.65,5.61.32,8.53,2.35,2.32,2.57,5.26.94,8.28C102.79,163.73,100.41,164.65,98.18,165.13Z" transform="translate(-22.01 -25.4)"/><path class="cls-3" d="M102.5,111.5c1.82-4.91.26-10.2,1.85-15.19,1.5-4.73,3.61-8.61,8.92-9.63,1.69-.32,3.53-0.39,4,1.77,0.44,1.91-.89,2.69-2.57,2.89-3.59.44-5.19,2.94-5.69,6.05-0.74,4.67-1.72,9.38-.74,14.16,0.89,1.84.28,3.44-.79,5a28,28,0,0,1-2.27,10.65,9.8,9.8,0,0,1-9.36,6.25c-4.47,0-7-2.4-8.65-6.24-2.05-4.8-2.24-10-3.39-15a33.22,33.22,0,0,0-1.4-4.76c-0.7-1.78-1.87-3.15-4-3.15s-3.29,1.38-4.06,3.14c-1.83,4.16-1.82,8.74-2.92,13.07a62.8,62.8,0,0,1-1.89,6.67c-1.46,3.92-4.14,6.31-8.6,6.27a9.8,9.8,0,0,1-9.36-6.26,28,28,0,0,1-2.28-10.65c-1.07-1.53-1.68-3.13-.79-5A35.77,35.77,0,0,0,47.19,95.5c-0.73-2.55-2.78-4-5.6-4.26a2.16,2.16,0,0,1-2.1-2.79c0.33-1.61,1.64-2,3.06-1.88A10,10,0,0,1,51.28,93a32.58,32.58,0,0,1,2.21,11.67c0.07,2.26-.63,4.68.83,6.79,1,1.72,1,3.69,1.31,5.57a19.45,19.45,0,0,0,1.11,6.36c0.75,1.8,1.83,3.24,4,3.16s3.26-1.52,3.87-3.36a53.12,53.12,0,0,0,1.62-7.81c0.61-3.6,1.06-7.27,2.7-10.6,2-4,5-6.68,9.74-6.57,4.47,0.1,7.36,2.75,9.24,6.58,1.7,3.48,2.14,7.32,2.77,11.09a59.35,59.35,0,0,0,1.39,6.84c0.59,2,1.65,3.74,4,3.83s3.45-1.64,4.18-3.61a20.17,20.17,0,0,0,.9-5.89C101.52,115.21,101.45,113.22,102.5,111.5Z" transform="translate(-22.01 -25.4)"/><path class="cls-4" d="M99.31,87.59L118,58.26c1.07-1.68,2.1-3.4,3.25-5,0.8-1.14,1.85-2.11,3.33-1.05s1.23,2.34.53,3.58c-1.15,2-2.47,3.95-3.72,5.92-6.51,10.26-13.1,20.47-19.48,30.81-1.78,2.89-2.89,3-4.83.2C91.89,85.13,86.39,77.8,81.32,70.18c-2.4-3.61-3.74-3.07-5.91.15-5.12,7.59-10.57,15-15.78,22.48-1.7,2.45-2.77,2.79-4.53-.05C47.72,80.88,40.15,69.12,32.67,57.31c-1.07-1.68-2.65-3.68-.23-5.16,2.25-1.38,3.12,1,4.06,2.47,6,9.4,12,18.83,18,28.23,3,4.75,3,4.73,6.17.32,4.91-6.93,10-13.74,14.68-20.81,2.52-3.8,4-3.31,6.31.15C87.18,70.77,93.08,78.81,99.31,87.59Z" transform="translate(-22.01 -25.4)"/><path class="cls-5" d="M102.5,111.5c1.17,1.65.15,3.27-.08,4.9-2.22,1.46-3.8-.1-5.33-1.26-3.57-2.7-5.69-6.41-7.15-10.59-1.36-3.92-2.25-8-4.31-11.68-3.8-6.73-10.67-6.76-14.41,0-2.51,4.52-3.52,9.67-5.54,14.42a19.28,19.28,0,0,1-6.33,8.17c-1.43,1.05-3,2.35-4.93,1-0.23-1.63-1.25-3.24-.08-4.9,4.15-1.7,5.5-5.56,6.93-9.26,1.73-4.48,3-9.15,5.29-13.4,2.63-4.8,6.67-7.38,12.12-7.29,5.24,0.09,9.1,2.67,11.62,7.29,2.32,4.25,3.56,8.92,5.29,13.4C97,105.94,98.33,109.81,102.5,111.5Z" transform="translate(-22.01 -25.4)"/><path class="cls-6" d="M107.51,116.53a7.86,7.86,0,0,1,.79-5c3.62-1.09,5-4.14,6.31-7.25,1.94-4.77,3.62-9.65,5.66-14.39a13.28,13.28,0,0,1,10-8.22c1.88-.37,4-0.49,4.45,1.89,0.4,2.17-1.48,2.61-3.25,2.81-3.78.42-5.88,2.93-7.2,6.16-2.09,5.07-3.84,10.29-6.06,15.3C116.17,112.46,113,116,107.51,116.53Z" transform="translate(-22.01 -25.4)"/><path class="cls-6" d="M48.51,111.56a7.88,7.88,0,0,1,.79,5c-5.45-.56-8.66-4.06-10.7-8.67C36.45,103,34.78,97.93,32.77,93c-1.45-3.55-3.65-6.36-7.92-6.68-1.65-.12-3.12-0.88-2.78-2.74,0.39-2.08,2.22-2.26,4-2a13.3,13.3,0,0,1,10.5,8.31c2,4.73,3.72,9.61,5.65,14.39C43.46,107.42,44.89,110.47,48.51,111.56Z" transform="translate(-22.01 -25.4)"/><path class="cls-7" d="M46.22,152.77c-0.84.75-1.84,1.15-2.68,0.19-2.12-2.44-4-2.24-6.08,0a2,2,0,0,1-1.8.31c-1.18-.45-0.37-1.4-0.16-2,0.93-2.64,2-5.24,3-7.83,0.68-1.66,2.35-2.7,3.32-1C43.65,145.5,44.7,149,46.22,152.77Z" transform="translate(-22.01 -25.4)"/><path class="cls-8" d="M79.42,153.55c-3.21.15-5-.87-6-3a6.19,6.19,0,0,1,.84-7,5.15,5.15,0,0,1,5.83-1.72c1.22,0.4,3,1,2.68,2.45-0.42,2-1.87,1-3.09.42a2.4,2.4,0,0,0-3.42,1,3.57,3.57,0,0,0-.11,3.77c0.62,1.1,1.47,1.84,2.81,1.46s3.38-1.76,3.67.15C83,153.09,80.49,153.47,79.42,153.55Z" transform="translate(-22.01 -25.4)"/><path class="cls-9" d="M115.5,141.71a17.93,17.93,0,0,1,3.94.07c1.14,0.26,1.36,2.09.55,2.15-4.83.36-3.09,3.87-3.43,6.44-0.15,1.12.8,3-1.35,3s-1.29-1.84-1.52-3c-0.46-2.32,1.63-5.63-2.92-6.41-1.31-.22-0.63-2,0.77-2.25a22.57,22.57,0,0,1,4,0v0Z" transform="translate(-22.01 -25.4)"/><path class="cls-10" d="M59,153.67c1.73,0.43,2.19,1.88,2.47,3.3,0.32,1.65-.35,3-2.14,3.25a2.4,2.4,0,0,1-2.88-2.58C56.39,155.8,57.59,154.66,59,153.67Z" transform="translate(-22.01 -25.4)"/><path class="cls-10" d="M97.71,153.6c1.55,1.12,2.76,2.28,2.64,4.11a2.4,2.4,0,0,1-2.95,2.49c-1.77-.28-2.39-1.65-2.07-3.31A4,4,0,0,1,97.71,153.6Z" transform="translate(-22.01 -25.4)"/><path class="cls-11" d="M54.4,116.4c5-1.1,7.94-4.63,9.82-9.05,2-4.72,3.54-9.63,5.52-14.36,1.54-3.67,3.92-6.53,8.43-6.64,4.75-.12,7.3,2.79,8.92,6.65,1.72,4.12,3,8.43,4.67,12.56,2.05,5,4.78,9.53,10.67,10.84a17.7,17.7,0,0,1-1.2,8.3A5.38,5.38,0,0,1,96,128.55c-2.86.06-4.33-1.76-4.91-4.11-1.05-4.33-1.75-8.75-2.61-13.13-0.19-1-.36-2-0.63-2.91-1.8-6.24-4.92-9.14-9.67-9-4.5.11-7.58,2.95-9.13,9-1.1,4.32-1.71,8.76-2.56,13.15-0.65,3.31-1.2,6.87-5.63,6.95s-5.31-3.39-6.07-6.67A32.53,32.53,0,0,1,54.4,116.4Z" transform="translate(-22.01 -25.4)"/><path class="cls-12" d="M40.88,146a21.37,21.37,0,0,1,.55,2.22,0.91,0.91,0,0,1-1.16,1.09,1,1,0,0,1-.77-1.45A10.75,10.75,0,0,1,40.88,146Z" transform="translate(-22.01 -25.4)"/></svg>